<svg xmlns="http://www.w3.org/2000/svg" viewBox="0 0 90.88 116.02"><g id="Layer_2" data-name="Layer 2"><g id="Layer_1-2" data-name="Layer 1"><path d="M18.93,52.7a6.54,6.54,0,0,1,5.18-3.16H45.76a6.53,6.53,0,0,1,5.18,3.16l3.49,7.79H70.26L41.82.18,41.73,0H28.53L.22,60,0,60.49H15.45ZM26.84,35,27,34.6h0l7.91-17.68,7.9,17.68h0l.21.45a1.6,1.6,0,0,1-1.45,2.23H28.27a1.58,1.58,0,0,1-1.58-1.58,1.62,1.62,0,0,1,.14-.65Z"/><rect x="76.77" width="13.81" height="60.49"/><rect x="1.5" y="74.75" width="89.38" height="13.5"/><rect x="1.5" y="102.52" width="89.38" height="13.5"/></g></g></svg>